PathFileType        4      (X/Y/Z)      C:\Users\u0101727\OneDrive - KU Leuven\reference_data\TRC\gait_60.trc         																																																																																																																																																																																		
DataRate	CameraRate	NumFrames	NumMarkers	Units	OrigDataRate	OrigDataStartFrame	OrigNumFrames																																																																																																																																																																											
100	100	9	59	m	100	346	461																																																																																																																																																																											
Frame#	Time	LASI			RASI			LKNE			LKNE_med			LTHI1			LTHI2			LTHI3			LANK_med			LTIB1			LTIB2			foot_l5			foot_l9			RKNE			RTHI3			RANK			RTIB1			RTIB2			RTIB3			Foot_r3			Foot_r4			Foot_r5			Foot_r6			Foot_r8			Foot_r9			RSHO			LSHO			CLAV			hum_l2			rad_l2			LW1			LH			hum_r2			RELB			rad_r2			RW2			RW1			RH			RTHI2			LANK			foot_l6			Foot_r7			foot_l7			foot_l4			LW2			RKNE_med			RANK_med			Foot_r10			foot_l8			Foot_r2			RPSI			LPSI			foot_l1			Foot_r1			foot_l2			LTIB3			foot_l3			LELB			foot_l10			RTHI1		
		X1	Y1	Z1	X2	Y2	Z2	X3	Y3	Z3	X4	Y4	Z4	X5	Y5	Z5	X6	Y6	Z6	X7	Y7	Z7	X8	Y8	Z8	X9	Y9	Z9	X10	Y10	Z10	X11	Y11	Z11	X12	Y12	Z12	X13	Y13	Z13	X14	Y14	Z14	X15	Y15	Z15	X16	Y16	Z16	X17	Y17	Z17	X18	Y18	Z18	X19	Y19	Z19	X20	Y20	Z20	X21	Y21	Z21	X22	Y22	Z22	X23	Y23	Z23	X24	Y24	Z24	X25	Y25	Z25	X26	Y26	Z26	X27	Y27	Z27	X28	Y28	Z28	X29	Y29	Z29	X30	Y30	Z30	X31	Y31	Z31	X32	Y32	Z32	X33	Y33	Z33	X34	Y34	Z34	X35	Y35	Z35	X36	Y36	Z36	X37	Y37	Z37	X38	Y38	Z38	X39	Y39	Z39	X40	Y40	Z40	X41	Y41	Z41	X42	Y42	Z42	X43	Y43	Z43	X44	Y44	Z44	X45	Y45	Z45	X46	Y46	Z46	X47	Y47	Z47	X48	Y48	Z48	X49	Y49	Z49	X50	Y50	Z50	X51	Y51	Z51	X52	Y52	Z52	X53	Y53	Z53	X54	Y54	Z54	X55	Y55	Z55	X56	Y56	Z56	X57	Y57	Z57	X58	Y58	Z58	X59	Y59	Z59
346	3.46	2.1004	0.90426	-0.24272	2.0983	0.8818	0.013751	2.2068	0.44604	-0.22111	NaN	NaN	NaN	2.2013	0.68098	-0.23365	2.1638	0.66179	-0.28932	2.2046	0.6262	-0.25918	2.1437	0.068568	-0.1211	2.2075	0.24802	-0.20899	NaN	NaN	NaN	NaN	NaN	NaN	2.2189	0.022457	-0.11444	1.9879	0.37826	0.0099596	2.0413	0.63184	0.066039	1.6429	0.18547	-0.034751	1.8384	0.2721	0.0074551	1.7915	0.32699	0.0078061	1.7839	0.27216	0.0055019	1.6277	0.16286	-0.043456	1.6224	0.12475	-0.036989	1.6424	0.057431	-0.022486	1.6744	0.039274	-0.063277	NaN	NaN	NaN	1.6795	0.091783	-0.10564	2.01	1.3427	0.069419	1.9823	1.3386	-0.28193	2.079	1.3225	-0.12813	1.9459	1.184	-0.33074	1.9321	0.92031	-0.3793	1.9567	0.7856	-0.37174	1.9187	0.73631	-0.41287	1.9984	1.1897	0.10686	1.9854	1.0386	0.12866	2.0848	0.92745	0.18098	2.1107	0.84729	0.20574	2.1662	0.87157	0.17345	2.1705	0.82707	0.21803	NaN	NaN	NaN	NaN	NaN	NaN	2.2889	0.015009	-0.16195	1.6999	0.020054	-0.097383	2.3157	0.0095125	-0.12191	NaN	NaN	NaN	NaN	NaN	NaN	NaN	NaN	NaN	1.6795	0.18025	-0.11257	NaN	NaN	NaN	NaN	NaN	NaN	1.5935	0.21333	-0.076955	NaN	NaN	NaN	NaN	NaN	NaN	2.0918	0.036616	-0.17033	1.6276	0.22401	-0.075483	2.0866	0.0044713	-0.17192	2.181	0.19827	-0.22505	NaN	NaN	NaN	NaN	NaN	NaN	NaN	NaN	NaN	2.0708	0.68199	0.061564
347	3.47	2.1135	0.9057	-0.24178	2.1093	0.88257	0.014541	2.2133	0.44516	-0.22104	NaN	NaN	NaN	2.2116	0.67779	-0.23403	2.1728	0.66007	-0.28936	2.2123	0.62285	-0.25955	2.1438	0.068533	-0.12108	2.2109	0.24687	-0.20894	NaN	NaN	NaN	NaN	NaN	NaN	2.2188	0.022196	-0.11421	2.0136	0.37677	0.010852	2.0583	0.63293	0.067464	1.6656	0.19335	-0.0348	1.8643	0.27239	0.0067971	1.8186	0.32838	0.011245	1.8094	0.27314	0.006256	1.6507	0.17063	-0.042709	1.6453	0.13329	-0.034869	1.6649	0.066222	-0.017687	1.6962	0.045824	-0.057601	NaN	NaN	NaN	1.7015	0.097205	-0.10238	2.0213	1.3443	0.069661	1.9959	1.3396	-0.2819	2.0918	1.324	-0.1275	1.9605	1.1848	-0.33089	1.9496	0.92092	-0.37963	1.977	0.787	-0.37229	1.9404	0.73714	-0.41365	2.0101	1.1911	0.10699	1.9968	1.0399	0.12839	2.0933	0.92652	0.18119	2.117	0.84583	0.20582	2.1735	0.86867	0.17407	2.1762	0.82358	0.21819	NaN	NaN	NaN	NaN	NaN	NaN	2.2889	0.015016	-0.16185	1.7204	0.023647	-0.092871	2.3163	0.009953	-0.12188	NaN	NaN	NaN	NaN	NaN	NaN	NaN	NaN	NaN	NaN	NaN	NaN	NaN	NaN	NaN	NaN	NaN	NaN	1.6166	0.22033	-0.077266	NaN	NaN	NaN	NaN	NaN	NaN	2.0919	0.036727	-0.17028	1.6506	0.231	-0.076202	2.0868	0.0046158	-0.17208	2.1836	0.19796	-0.2249	NaN	NaN	NaN	NaN	NaN	NaN	NaN	NaN	NaN	2.0865	0.68392	0.062719
348	3.48	2.1264	0.90689	-0.24055	2.1203	0.8839	0.015722	2.2191	0.44412	-0.22089	NaN	NaN	NaN	2.2211	0.67455	-0.23461	2.1809	0.65833	-0.28938	2.2195	0.61961	-0.26026	2.1442	0.068471	-0.12068	2.2139	0.24582	-0.20922	NaN	NaN	NaN	NaN	NaN	NaN	2.2188	0.021859	-0.114	2.0398	0.37694	0.011518	2.0745	0.63457	0.068993	1.6903	0.19975	-0.033899	1.8901	0.2735	0.0063257	1.8453	0.32964	0.013558	1.835	0.27498	0.0060339	1.6749	0.17677	-0.041653	1.6699	0.1399	-0.032927	1.6896	0.073991	-0.013276	1.7202	0.050624	-0.052828	NaN	NaN	NaN	1.7255	0.10141	-0.099466	2.0325	1.3461	0.069939	2.0098	1.3409	-0.28199	2.1043	1.3256	-0.12684	1.9752	1.1855	-0.33098	1.9675	0.92186	-0.37982	1.9977	0.78868	-0.37251	1.9625	0.73821	-0.41425	2.0213	1.1927	0.10699	2.008	1.0413	0.12807	2.1015	0.92557	0.18149	2.1232	0.84437	0.20621	2.1802	0.8656	0.17465	2.1815	0.82014	0.21848	NaN	NaN	NaN	NaN	NaN	NaN	2.2888	0.014848	-0.16174	1.7437	0.026128	-0.087673	2.3162	0.0097533	-0.12175	NaN	NaN	NaN	NaN	NaN	NaN	NaN	NaN	NaN	NaN	NaN	NaN	NaN	NaN	NaN	NaN	NaN	NaN	1.6408	0.22579	-0.077092	NaN	NaN	NaN	NaN	NaN	NaN	2.0919	0.036883	-0.1702	1.675	0.23609	-0.076516	2.0867	0.0046552	-0.17199	2.1854	0.19729	-0.22489	NaN	NaN	NaN	NaN	NaN	NaN	NaN	NaN	NaN	2.1013	0.68604	0.063962
349	3.49	2.1389	0.90804	-0.23914	2.1311	0.88562	0.016911	2.2246	0.44294	-0.22068	NaN	NaN	NaN	2.2304	0.67232	-0.23561	2.1887	0.65702	-0.2894	2.227	0.61738	-0.26113	2.145	0.068647	-0.12009	2.216	0.24463	-0.20969	NaN	NaN	NaN	NaN	NaN	NaN	2.2188	0.021521	-0.11374	2.066	0.37825	0.012183	2.0898	0.63662	0.070731	1.7158	0.20391	-0.033122	1.9161	0.27493	0.0062232	1.8717	0.33137	0.014089	1.8617	0.27713	0.0060918	1.7	0.18096	-0.040503	1.6961	0.14479	-0.030714	1.7163	0.079731	-0.0092951	1.7465	0.054582	-0.04799	NaN	NaN	NaN	1.7507	0.10391	-0.096982	2.0433	1.3478	0.070194	2.0237	1.3423	-0.28197	2.1168	1.3272	-0.12596	1.9903	1.1867	-0.33097	1.9857	0.92303	-0.3799	2.0184	0.79058	-0.3727	1.9851	0.73982	-0.41477	2.0322	1.1943	0.10695	2.0194	1.0427	0.12826	2.1095	0.92475	0.18196	2.1292	0.84307	0.20663	2.1868	0.86262	0.17533	2.1864	0.81663	0.21892	NaN	NaN	NaN	NaN	NaN	NaN	2.2888	0.014773	-0.16155	1.7694	0.028944	-0.08107	2.3166	0.010028	-0.12167	NaN	NaN	NaN	NaN	NaN	NaN	NaN	NaN	NaN	NaN	NaN	NaN	NaN	NaN	NaN	NaN	NaN	NaN	1.6659	0.22937	-0.076665	NaN	NaN	NaN	NaN	NaN	NaN	2.092	0.03703	-0.17013	1.7	0.23954	-0.076158	2.0866	0.0048096	-0.1719	2.1867	0.19686	-0.22506	NaN	NaN	NaN	NaN	NaN	NaN	NaN	NaN	NaN	2.1151	0.68859	0.065495
350	3.5	2.1513	0.90936	-0.2378	2.1416	0.88777	0.018352	2.2298	0.44191	-0.2204	NaN	NaN	NaN	2.2397	0.67126	-0.23642	2.1964	0.65658	-0.28923	2.2346	0.61632	-0.26169	2.1453	0.068496	-0.11982	2.2178	0.24353	-0.2103	NaN	NaN	NaN	NaN	NaN	NaN	2.2188	0.02125	-0.11356	2.0924	0.3805	0.013159	2.1042	0.63917	0.07227	1.7422	0.20653	-0.031916	1.9433	0.27665	0.0068547	1.8989	0.3332	0.014263	1.8885	0.27904	0.0060985	1.7267	0.18347	-0.038927	1.7232	0.14782	-0.02874	1.7441	0.082958	-0.0065309	1.7745	0.057452	-0.043984	NaN	NaN	NaN	1.7779	0.1061	-0.094464	2.054	1.3494	0.070521	2.0379	1.344	-0.28194	2.1292	1.3288	-0.1251	2.0053	1.1881	-0.33093	2.0041	0.92442	-0.37979	2.0395	0.79278	-0.37239	2.0078	0.7417	-0.41508	2.0429	1.1959	0.1071	2.0307	1.0444	0.12831	2.1174	0.92418	0.18251	2.1345	0.84187	0.207	2.1929	0.85986	0.17605	2.1913	0.81364	0.21913	NaN	NaN	NaN	NaN	NaN	NaN	2.2889	0.014801	-0.1614	1.7972	0.030634	-0.07679	2.3162	0.0095964	-0.12153	NaN	NaN	NaN	NaN	NaN	NaN	NaN	NaN	NaN	NaN	NaN	NaN	NaN	NaN	NaN	NaN	NaN	NaN	1.6917	0.23091	-0.075729	NaN	NaN	NaN	NaN	NaN	NaN	2.0921	0.03724	-0.17009	1.7259	0.24146	-0.07561	2.0862	0.0042983	-0.1716	2.1877	0.19631	-0.22536	NaN	NaN	NaN	NaN	NaN	NaN	NaN	NaN	NaN	2.129	0.69192	0.067323
351	3.51	2.1637	0.91091	-0.23659	2.1521	0.89015	0.019758	2.2346	0.4409	-0.22016	NaN	NaN	NaN	2.2486	0.67093	-0.23622	2.2046	0.65683	-0.28871	2.2425	0.61608	-0.26159	2.1457	0.068415	-0.11952	2.2194	0.24262	-0.21099	NaN	NaN	NaN	NaN	NaN	NaN	2.2188	0.02096	-0.11338	2.1183	0.38315	0.013968	2.118	0.64192	0.074123	1.7692	0.20762	-0.030456	1.9704	0.27823	0.0072675	1.9251	0.33435	0.013416	1.9153	0.28005	0.0065623	1.7541	0.18437	-0.037545	1.7514	0.14879	-0.027001	1.7739	0.085047	-0.0037123	1.8044	0.059163	-0.041211	NaN	NaN	NaN	1.8064	0.10738	-0.092563	2.0649	1.3515	0.070891	2.0521	1.3458	-0.28194	2.1414	1.3304	-0.12413	2.0205	1.1897	-0.33098	2.0229	0.92609	-0.3795	2.0609	0.79561	-0.37201	2.031	0.74388	-0.41513	2.0537	1.1977	0.10728	2.0414	1.0459	0.12831	2.125	0.92391	0.1831	2.1394	0.84113	0.20748	2.1987	0.85749	0.17683	2.1953	0.81062	0.21948	NaN	NaN	NaN	NaN	NaN	NaN	2.2888	0.014691	-0.16131	1.8272	0.032062	-0.07403	2.3166	0.0098823	-0.12148	NaN	NaN	NaN	NaN	NaN	NaN	NaN	NaN	NaN	NaN	NaN	NaN	NaN	NaN	NaN	NaN	NaN	NaN	1.7179	0.23065	-0.074052	NaN	NaN	NaN	NaN	NaN	NaN	2.0919	0.037028	-0.16969	1.7523	0.24212	-0.074587	2.0865	0.0047679	-0.17164	2.1885	0.19582	-0.22559	NaN	NaN	NaN	NaN	NaN	NaN	NaN	NaN	NaN	2.1417	0.6952	0.06915
352	3.52	2.1755	0.91194	-0.23539	2.1626	0.89252	0.021186	2.239	0.43993	-0.2201	NaN	NaN	NaN	NaN	NaN	NaN	2.2134	0.65739	-0.28798	2.2508	0.61607	-0.26092	2.1459	0.068258	-0.11928	2.2211	0.24204	-0.21151	NaN	NaN	NaN	NaN	NaN	NaN	2.2189	0.020932	-0.1132	2.1445	0.38661	0.015159	2.1319	0.64521	0.075776	1.7968	0.20698	-0.029012	1.9982	0.28013	0.0081213	1.953	0.33622	0.013652	1.9432	0.28167	0.0077374	1.7822	0.1837	-0.035948	1.7808	0.14813	-0.02488	1.8058	0.085446	-0.0018785	1.8364	0.060297	-0.039077	NaN	NaN	NaN	1.836	0.10757	-0.091226	2.0757	1.3533	0.071284	2.0664	1.3479	-0.28154	2.1537	1.3321	-0.12308	2.0358	1.1915	-0.33091	2.0418	0.92811	-0.37897	2.0823	0.79849	-0.37129	2.0547	0.74657	-0.41514	2.0644	1.1996	0.10776	2.0517	1.048	0.12844	2.1321	0.92401	0.18364	2.145	0.84122	0.20856	2.2041	0.85552	0.17754	2.1993	0.80823	0.21979	NaN	NaN	NaN	NaN	NaN	NaN	2.289	0.014618	-0.16121	1.859	0.033026	-0.071948	2.3168	0.0098883	-0.12144	NaN	NaN	NaN	NaN	NaN	NaN	NaN	NaN	NaN	NaN	NaN	NaN	NaN	NaN	NaN	NaN	NaN	NaN	1.7446	0.22894	-0.072473	NaN	NaN	NaN	NaN	NaN	NaN	2.0918	0.0373	-0.16945	1.7782	0.24007	-0.073517	2.0864	0.0048936	-0.17151	2.1893	0.19542	-0.22586	NaN	NaN	NaN	NaN	NaN	NaN	NaN	NaN	NaN	2.1544	0.69883	0.071112
353	3.53	2.1872	0.9134	-0.23426	2.1731	0.89507	0.022483	2.2428	0.43903	-0.2201	NaN	NaN	NaN	NaN	NaN	NaN	2.2224	0.65793	-0.28693	2.2591	0.6161	-0.25964	2.1462	0.068314	-0.11903	2.2225	0.24142	-0.21229	NaN	NaN	NaN	NaN	NaN	NaN	2.2189	0.020902	-0.11304	2.1693	0.39008	0.016292	2.1459	0.64839	0.077311	1.8253	0.20518	-0.028098	2.0257	0.28175	0.0092945	1.9798	0.33739	0.014135	1.9706	0.28294	0.0088181	1.8111	0.18133	-0.03429	1.8113	0.14581	-0.023165	1.8385	0.084078	-4.49E-04	1.8695	0.059834	-0.037972	NaN	NaN	NaN	1.8667	0.10676	-0.090156	2.0863	1.3552	0.071572	2.0807	1.3502	-0.28132	2.1658	1.3338	-0.12208	2.0511	1.1935	-0.3309	2.061	0.93029	-0.3784	2.104	0.80169	-0.37012	2.0784	0.74967	-0.41481	2.0751	1.2016	0.10816	2.0613	1.0499	0.12803	2.139	0.92446	0.18408	2.1492	0.84113	0.20882	2.2091	0.85392	0.17827	2.2027	0.8062	0.22007	NaN	NaN	NaN	NaN	NaN	NaN	2.2891	0.01467	-0.16114	1.8922	0.032594	-0.071176	2.3168	0.0098397	-0.12141	NaN	NaN	NaN	NaN	NaN	NaN	NaN	NaN	NaN	NaN	NaN	NaN	NaN	NaN	NaN	NaN	NaN	NaN	1.7714	0.22486	-0.07115	NaN	NaN	NaN	NaN	NaN	NaN	2.0919	0.037464	-0.16906	1.8051	0.23737	-0.072025	2.0864	0.0051006	-0.17139	2.1902	0.19531	-0.22625	NaN	NaN	NaN	NaN	NaN	NaN	NaN	NaN	NaN	2.1671	0.70237	0.073034
354	3.54	2.1988	0.91473	-0.23344	2.184	0.89794	0.023514	2.2462	0.438	-0.22013	NaN	NaN	NaN	NaN	NaN	NaN	2.2314	0.65811	-0.28573	2.2672	0.61594	-0.25786	2.1464	0.068338	-0.11899	2.2236	0.24092	-0.21306	NaN	NaN	NaN	NaN	NaN	NaN	2.2188	0.020558	-0.11305	2.1943	0.39449	0.017801	2.1603	0.65134	0.079104	1.8536	0.20107	-0.026615	2.0527	0.28333	0.010425	2.0065	0.33825	0.015441	1.9975	0.28341	0.010422	1.8406	0.17749	-0.032823	1.842	0.14186	-0.021824	1.8722	0.081285	6.94E-04	1.904	0.05855	-0.037104	NaN	NaN	NaN	1.8988	0.10524	-0.08925	2.0973	1.3572	0.072126	2.0945	1.3522	-0.28082	2.1779	1.3356	-0.12094	2.0665	1.1956	-0.33072	2.0804	0.9326	-0.3777	2.1261	0.80528	-0.3688	2.1026	0.75303	-0.41426	2.0855	1.2035	0.10854	2.0708	1.0518	0.1283	2.1454	0.92504	0.18437	2.1532	0.84115	0.20959	2.2139	0.85267	0.17898	2.206	0.8046	0.22045	NaN	NaN	NaN	NaN	NaN	NaN	2.2891	0.014626	-0.16115	1.9274	0.032312	-0.070243	2.3164	0.0094582	-0.12137	NaN	NaN	NaN	NaN	NaN	NaN	NaN	NaN	NaN	NaN	NaN	NaN	NaN	NaN	NaN	NaN	NaN	NaN	1.7991	0.21967	-0.069015	NaN	NaN	NaN	NaN	NaN	NaN	2.0925	0.03802	-0.16967	1.8324	0.23315	-0.070284	2.0864	0.0052434	-0.17138	2.1908	0.19532	-0.22665	NaN	NaN	NaN	NaN	NaN	NaN	NaN	NaN	NaN	2.1811	0.70614	0.07491
